<mxfile host="Electron" modified="2023-04-23T11:47:01.820Z" agent="Mozilla/5.0 (Macintosh; Intel Mac OS X 10_15_7) AppleWebKit/537.36 (KHTML, like Gecko) draw.io/21.1.2 Chrome/106.0.5249.199 Electron/21.4.3 Safari/537.36" etag="4a2lQkMAtnEyVBzlJzuk" version="21.1.2" type="device">
  <diagram name="Page-1" id="puCZiJnxiid0PaoeAQZF">
    <mxGraphModel dx="984" dy="658" grid="1" gridSize="10" guides="1" tooltips="1" connect="1" arrows="1" fold="1" page="1" pageScale="1" pageWidth="827" pageHeight="1169" math="0" shadow="0">
      <root>
        <mxCell id="0" />
        <mxCell id="1" parent="0" />
        <mxCell id="6KshY1bItmZJ5iFTkkk7-1" value="" style="rounded=0;whiteSpace=wrap;html=1;strokeWidth=4;strokeColor=#122A59;" vertex="1" parent="1">
          <mxGeometry x="10" y="90" width="120" height="60" as="geometry" />
        </mxCell>
        <mxCell id="6KshY1bItmZJ5iFTkkk7-2" value="" style="ellipse;whiteSpace=wrap;html=1;aspect=fixed;strokeWidth=4;strokeColor=#122A59;" vertex="1" parent="1">
          <mxGeometry x="30" y="10" width="80" height="80" as="geometry" />
        </mxCell>
      </root>
    </mxGraphModel>
  </diagram>
</mxfile>
